HIERARCHY
ROOT Hips
{
	OFFSET 0.000000 89.005402 0.000000
	CHANNELS 6 Xposition Yposition Zposition Xrotation Yrotation Zrotation
	JOINT Spine
	{
		OFFSET 0.116900 10.681000 0.373400
		CHANNELS 3 Xrotation Yrotation Zrotation
		JOINT Spine1
		{
			OFFSET 0.000000 13.840401 0.053500
			CHANNELS 3 Xrotation Yrotation Zrotation
			JOINT Spine2
			{
				OFFSET 0.000000 14.712700 -0.366200
				CHANNELS 3 Xrotation Yrotation Zrotation
				JOINT Neck
				{
					OFFSET 0.000000 35.415497 -3.314200
					CHANNELS 3 Xrotation Yrotation Zrotation
					JOINT Head
					{
						OFFSET 0.000000 16.899200 1.218300
						CHANNELS 3 Xrotation Yrotation Zrotation
						JOINT HeadTop_End
						{
							OFFSET 0.000000 22.206207 2.192500
							CHANNELS 3 Xrotation Yrotation Zrotation
							End Site
							{
								OFFSET 0.000000 22.314178 0.000000
							}
						}
					}
				}
				JOINT LeftShoulder
				{
					OFFSET 12.896400 26.716293 -4.548400
					CHANNELS 3 Xrotation Yrotation Zrotation
					JOINT LeftArm
					{
						OFFSET 19.027000 -4.857010 -1.718400
						CHANNELS 3 Xrotation Yrotation Zrotation
						JOINT LeftForeArm
						{
							OFFSET 24.179897 0.000000 0.000000
							CHANNELS 3 Xrotation Yrotation Zrotation
							JOINT LeftHand
							{
								OFFSET 27.156403 0.000000 0.000000
								CHANNELS 3 Xrotation Yrotation Zrotation
								JOINT LeftHandIndex1
								{
									OFFSET 16.441200 0.000000 0.000000
									CHANNELS 3 Xrotation Yrotation Zrotation
									JOINT LeftHandIndex2
									{
										OFFSET 4.821899 0.000000 0.000000
										CHANNELS 3 Xrotation Yrotation Zrotation
										JOINT LeftHandIndex3
										{
											OFFSET 6.386497 0.000000 0.000000
											CHANNELS 3 Xrotation Yrotation Zrotation
											JOINT LeftHandIndex4
											{
												OFFSET 5.188988 0.000000 0.000000
												CHANNELS 3 Xrotation Yrotation Zrotation
												End Site
												{
													OFFSET -0.178703 5.185913 0.000177
												}
											}
										}
									}
								}
								JOINT LeftHandThumb1
								{
									OFFSET 6.534897 -5.032593 5.900300
									CHANNELS 3 Xrotation Yrotation Zrotation
									JOINT LeftHandThumb2
									{
										OFFSET 3.818176 -2.204422 2.204423
										CHANNELS 3 Xrotation Yrotation Zrotation
										JOINT LeftHandThumb3
										{
											OFFSET 3.252098 -1.877594 1.877601
											CHANNELS 3 Xrotation Yrotation Zrotation
											JOINT LeftHandThumb4
											{
												OFFSET 5.251778 -3.032120 3.032117
												CHANNELS 3 Xrotation Yrotation Zrotation
												End Site
												{
													OFFSET 0.000023 6.780014 0.000000
												}
											}
										}
									}
								}
							}
						}
					}
				}
				JOINT RightShoulder
				{
					OFFSET -12.896300 26.716293 -4.548400
					CHANNELS 3 Xrotation Yrotation Zrotation
					JOINT RightArm
					{
						OFFSET -19.027000 -4.857010 -1.718400
						CHANNELS 3 Xrotation Yrotation Zrotation
						JOINT RightForeArm
						{
							OFFSET -24.179897 0.000000 0.000000
							CHANNELS 3 Xrotation Yrotation Zrotation
							JOINT RightHand
							{
								OFFSET -27.156403 0.000000 0.000000
								CHANNELS 3 Xrotation Yrotation Zrotation
								JOINT RightHandThumb1
								{
									OFFSET -6.591202 -4.852203 5.988100
									CHANNELS 3 Xrotation Yrotation Zrotation
									JOINT RightHandThumb2
									{
										OFFSET -3.818176 -2.204422 2.204423
										CHANNELS 3 Xrotation Yrotation Zrotation
										JOINT RightHandThumb3
										{
											OFFSET -3.252098 -1.877594 1.877601
											CHANNELS 3 Xrotation Yrotation Zrotation
											JOINT RightHandThumb4
											{
												OFFSET -5.251778 -3.032120 3.032117
												CHANNELS 3 Xrotation Yrotation Zrotation
												End Site
												{
													OFFSET -0.000023 6.780014 0.000000
												}
											}
										}
									}
								}
								JOINT RightHandIndex1
								{
									OFFSET -16.029404 0.000000 0.000000
									CHANNELS 3 Xrotation Yrotation Zrotation
									JOINT RightHandIndex2
									{
										OFFSET -5.213303 0.000000 0.000000
										CHANNELS 3 Xrotation Yrotation Zrotation
										JOINT RightHandIndex3
										{
											OFFSET -6.386528 0.000000 0.000000
											CHANNELS 3 Xrotation Yrotation Zrotation
											JOINT RightHandIndex4
											{
												OFFSET -5.189026 0.000000 0.000000
												CHANNELS 3 Xrotation Yrotation Zrotation
												End Site
												{
													OFFSET 0.236702 5.183624 0.001972
												}
											}
										}
									}
								}
							}
						}
					}
				}
			}
		}
	}
	JOINT LeftUpLeg
	{
		OFFSET 14.073000 -7.904099 -1.463000
		CHANNELS 3 Xrotation Yrotation Zrotation
		JOINT LeftLeg
		{
			OFFSET -0.109806 -34.073280 4.093200
			CHANNELS 3 Xrotation Yrotation Zrotation
			JOINT LeftFoot
			{
				OFFSET 0.109806 -29.899420 -6.319000
				CHANNELS 3 Xrotation Yrotation Zrotation
				JOINT LeftToeBase
				{
					OFFSET 1.551100 -14.988700 20.535801
					CHANNELS 3 Xrotation Yrotation Zrotation
					JOINT LeftToe_End
					{
						OFFSET 0.221200 0.570800 13.248301
						CHANNELS 3 Xrotation Yrotation Zrotation
						End Site
						{
							OFFSET 0.000000 13.262435 0.000000
						}
					}
				}
			}
		}
	}
	JOINT RightUpLeg
	{
		OFFSET -13.839300 -7.904099 -1.463000
		CHANNELS 3 Xrotation Yrotation Zrotation
		JOINT RightLeg
		{
			OFFSET 0.109694 -34.073219 4.093300
			CHANNELS 3 Xrotation Yrotation Zrotation
			JOINT RightFoot
			{
				OFFSET -0.109694 -29.899384 -6.319200
				CHANNELS 3 Xrotation Yrotation Zrotation
				JOINT RightToeBase
				{
					OFFSET -1.551100 -14.988700 20.535801
					CHANNELS 3 Xrotation Yrotation Zrotation
					JOINT RightToe_End
					{
						OFFSET -0.221200 0.570900 13.248299
						CHANNELS 3 Xrotation Yrotation Zrotation
						End Site
						{
							OFFSET 0.000000 13.262440 0.000000
						}
					}
				}
			}
		}
	}
}
MOTION
Frames: 6
Frame Time: 0.033333
-0.302793 52.409836 5.596458 -25.260189 -11.680454 0.606402 6.785781 -2.897993 -1.228118 13.996740 -3.876902 1.883482 13.961403 -4.093796 1.632295 1.476441 10.965859 -0.654376 -5.859282 -3.097366 14.872479 0.000001 0.000001 -0.000000 1.052719 1.886132 -11.868749 -8.979249 -33.621360 -62.439718 0.000027 -46.230152 0.000036 41.626991 17.591507 24.252409 0.144358 1.405341 -11.729117 0.029064 0.633280 -5.255186 0.007267 0.316973 -2.627518 0.000000 0.000000 0.000003 1.616988 -5.007512 -0.285539 6.748329 19.574132 -7.964959 0.516832 7.464222 -1.486810 0.000001 0.000001 -0.000003 0.548541 4.926374 11.868324 31.453653 8.140909 43.619057 0.000005 105.963746 -0.000011 27.570503 -12.108878 -45.913631 21.658421 -10.007354 15.733220 2.221026 -15.029966 -0.723458 -2.440499 -3.066226 -2.239092 0.000001 0.000003 0.000000 1.209602 -3.923942 34.253149 0.176346 -1.559087 12.905325 0.044227 -0.784512 6.451459 0.000002 0.000001 -0.000001 -58.414653 0.753049 17.152820 93.926514 1.438181 -0.274396 -8.674263 1.189548 -6.488687 -0.000006 -0.000002 0.000002 0.000000 0.000000 0.000000 -69.415014 -2.954368 -8.831470 84.991029 -0.168225 0.059270 5.792552 -0.274105 -6.347373 0.000001 0.000007 0.000002 -0.000000 -0.000000 0.000000 
-0.357962 52.338730 5.655170 -25.241784 -11.724221 0.695398 6.724534 -2.877831 -1.196633 13.882637 -3.807281 1.922279 13.851398 -4.017541 1.663711 0.984142 11.004437 -0.022323 -6.626537 -2.312233 14.992737 0.000000 -0.000001 0.000001 1.053574 1.882743 -11.862355 -9.149413 -33.741063 -62.695071 0.000006 -45.814805 0.000007 41.763899 17.410550 24.279866 0.144357 1.405341 -11.729113 0.029064 0.633280 -5.255188 0.007267 0.316973 -2.627518 0.000000 0.000000 0.000000 1.616988 -5.007512 -0.285539 6.748330 19.574134 -7.964959 0.516832 7.464222 -1.486810 0.000002 0.000001 -0.000003 0.550532 5.026179 11.885928 31.881779 7.622309 43.858175 0.000009 107.261523 -0.000010 33.066254 -16.551025 -42.397552 21.658424 -10.007356 15.733216 2.221027 -15.029966 -0.723456 -2.440500 -3.066228 -2.239092 0.000001 -0.000000 0.000000 1.209600 -3.923942 34.253149 0.176340 -1.559086 12.905325 0.044230 -0.784508 6.451461 0.000001 -0.000002 -0.000001 -58.440840 0.751253 17.174526 94.064785 1.406597 -0.278179 -8.770148 1.209624 -6.575511 -0.000006 -0.000002 0.000002 0.000000 0.000000 0.000000 -69.577088 -2.846870 -8.781804 85.236560 -0.217196 0.059626 5.695509 -0.273938 -6.367983 0.000001 0.000007 0.000002 0.000000 -0.000002 0.000000 
-0.431059 52.290535 5.726227 -25.249751 -11.755073 0.879891 6.668489 -2.876009 -1.306079 13.806887 -3.714262 1.934657 13.776560 -3.927860 1.673377 0.689949 11.090021 0.410826 -7.065782 -1.469511 15.060644 -0.000000 -0.000000 0.000001 1.054173 1.882123 -11.854749 -9.278007 -34.159374 -62.744413 0.000002 -45.496542 0.000003 41.733487 17.573013 24.055424 0.144357 1.405341 -11.729114 0.029064 0.633280 -5.255194 0.007267 0.316974 -2.627513 -0.000000 -0.000000 0.000002 1.616988 -5.007510 -0.285539 6.748330 19.574134 -7.964962 0.516832 7.464222 -1.486811 -0.000001 0.000002 -0.000000 0.539422 5.156264 11.870070 32.024312 7.298152 44.300296 0.000045 107.906341 -0.000068 35.962353 -17.661022 -39.726293 21.658421 -10.007353 15.733220 2.221026 -15.029966 -0.723457 -2.440499 -3.066223 -2.239091 -0.000001 -0.000002 -0.000000 1.209601 -3.923943 34.253149 0.176342 -1.559089 12.905324 0.044232 -0.784507 6.451467 0.000001 0.000001 -0.000001 -58.354623 0.830650 17.109974 94.135634 1.391726 -0.280864 -8.880290 1.233593 -6.689238 -0.000006 -0.000003 0.000002 0.000000 -0.000001 -0.000000 -69.708781 -2.661295 -8.803328 85.534630 -0.240647 0.060258 5.535791 -0.272609 -6.371297 0.000001 0.000006 0.000002 0.000000 0.000001 -0.000000 
-0.489025 52.291885 5.758083 -25.375182 -11.744843 1.010192 6.636392 -2.914331 -1.466927 13.782487 -3.723484 1.912913 13.748565 -3.946447 1.655246 0.690930 11.194761 0.622212 -7.016011 -0.765038 15.086665 -0.000000 0.000001 -0.000001 1.054155 1.881306 -11.850292 -9.210955 -34.455238 -62.570714 0.000000 -45.296688 0.000005 41.710210 17.699520 23.849059 0.144357 1.405342 -11.729120 0.029064 0.633280 -5.255191 0.007267 0.316974 -2.627513 -0.000000 0.000000 0.000003 1.616988 -5.007511 -0.285543 6.748332 19.574132 -7.964961 0.516831 7.464222 -1.486811 0.000000 0.000001 -0.000001 0.514360 5.289630 11.816313 32.015334 7.487985 44.612996 0.000056 107.499487 -0.000058 34.904019 -16.671771 -38.329854 21.658421 -10.007352 15.733218 2.221026 -15.029966 -0.723459 -2.440499 -3.066231 -2.239091 -0.000000 0.000003 0.000001 1.209600 -3.923943 34.253146 0.176343 -1.559088 12.905327 0.044237 -0.784513 6.451468 -0.000003 -0.000001 -0.000000 -58.110252 0.894524 17.009343 94.103648 1.394913 -0.281333 -8.940272 1.248929 -6.785710 -0.000006 -0.000002 0.000002 0.000000 -0.000000 -0.000000 -69.616307 -2.505051 -8.835627 85.710213 -0.275122 0.061305 5.389717 -0.268696 -6.354713 0.000001 0.000008 0.000002 0.000000 -0.000001 -0.000000 
-0.533906 52.313210 5.745907 -25.596494 -11.709722 1.103941 6.623128 -2.970596 -1.640016 13.792296 -3.795238 1.862121 13.752253 -4.029608 1.611275 0.913404 11.276951 0.700474 -6.332111 -0.263698 15.043147 -0.000000 -0.000000 0.000001 1.053588 1.880375 -11.848203 -9.071351 -34.600147 -62.314596 0.000018 -45.162758 0.000031 41.592676 17.557734 23.737771 0.144358 1.405341 -11.729118 0.029064 0.633281 -5.255189 0.007267 0.316974 -2.627513 0.000000 0.000000 0.000002 1.616988 -5.007511 -0.285539 6.748330 19.574135 -7.964959 0.516834 7.464221 -1.486811 -0.000001 -0.000001 0.000001 0.482781 5.397294 11.748735 31.857980 8.222142 44.837361 0.000159 106.482895 -0.000173 31.243208 -14.694655 -38.630071 21.658421 -10.007355 15.733218 2.221026 -15.029966 -0.723457 -2.440502 -3.066228 -2.239089 -0.000000 -0.000001 -0.000000 1.209601 -3.923945 34.253146 0.176346 -1.559088 12.905324 0.044230 -0.784512 6.451462 -0.000001 -0.000002 -0.000000 -57.775047 0.949242 16.887270 94.000601 1.412547 -0.280208 -8.933423 1.254153 -6.862917 -0.000006 -0.000002 0.000002 0.000000 -0.000000 -0.000000 -69.386669 -2.396037 -8.899048 85.799095 -0.303673 0.062033 5.277495 -0.265608 -6.354082 0.000001 0.000008 0.000002 -0.000000 0.000001 -0.000000 
-0.561102 52.349014 5.709732 -25.775003 -11.716962 1.161051 6.633181 -3.006074 -1.778837 13.830926 -3.855675 1.775115 13.784906 -4.099489 1.530876 1.178510 11.306679 0.840784 -5.394510 0.073919 14.887719 -0.000000 0.000001 0.000001 1.052541 1.879445 -11.847406 -9.054106 -34.530814 -62.182971 0.000008 -45.054882 0.000016 41.634753 17.431384 23.844831 0.144357 1.405341 -11.729114 0.029064 0.633281 -5.255185 0.007267 0.316974 -2.627517 -0.000000 0.000000 0.000003 1.616988 -5.007511 -0.285541 6.748330 19.574130 -7.964958 0.516832 7.464222 -1.486812 -0.000000 0.000001 -0.000001 0.477972 5.424564 11.700651 31.549918 9.047351 45.004140 -0.000051 105.362983 0.000037 26.433300 -11.111452 -39.243771 21.658424 -10.007360 15.733218 2.221027 -15.029964 -0.723458 -2.440500 -3.066225 -2.239092 0.000001 0.000001 0.000002 1.209606 -3.923945 34.253146 0.176343 -1.559088 12.905326 0.044232 -0.784514 6.451464 -0.000001 0.000001 -0.000004 -57.487715 0.997431 16.806893 93.864913 1.455376 -0.279320 -8.891078 1.255780 -6.930335 -0.000006 -0.000002 0.000002 -0.000000 -0.000000 -0.000000 -69.178048 -2.340909 -8.936635 85.786281 -0.302219 0.062312 5.239343 -0.264860 -6.352551 0.000001 0.000007 0.000002 -0.000000 0.000002 0.000000 
